<svg width="12" height="14" viewBox="0 0 12 14" fill="none" xmlns="http://www.w3.org/2000/svg">
<path fill-rule="evenodd" clip-rule="evenodd" d="M2.66667 0.333496C1.19391 0.333496 0 1.5274 0 3.00016V11.0002C0 12.4729 1.19391 13.6668 2.66667 13.6668H9.33333C10.8061 13.6668 12 12.4729 12 11.0002V4.10473C12 3.39749 11.7191 2.71921 11.219 2.21912L10.1144 1.11454C9.61428 0.614448 8.93601 0.333496 8.22876 0.333496H2.66667ZM3.33333 3.16683C3.05719 3.16683 2.83333 3.39069 2.83333 3.66683C2.83333 3.94297 3.05719 4.16683 3.33333 4.16683H8.66667C8.94281 4.16683 9.16667 3.94297 9.16667 3.66683C9.16667 3.39069 8.94281 3.16683 8.66667 3.16683H3.33333ZM2.83333 7.00016C2.83333 6.72402 3.05719 6.50016 3.33333 6.50016H8.66667C8.94281 6.50016 9.16667 6.72402 9.16667 7.00016C9.16667 7.27631 8.94281 7.50016 8.66667 7.50016H3.33333C3.05719 7.50016 2.83333 7.27631 2.83333 7.00016ZM3.33333 9.8335C3.05719 9.8335 2.83333 10.0574 2.83333 10.3335C2.83333 10.6096 3.05719 10.8335 3.33333 10.8335H6C6.27614 10.8335 6.5 10.6096 6.5 10.3335C6.5 10.0574 6.27614 9.8335 6 9.8335H3.33333Z" fill="black"/>
</svg>
