<svg width="14" height="14" viewBox="0 0 14 14" fill="none" xmlns="http://www.w3.org/2000/svg">
<path fill-rule="evenodd" clip-rule="evenodd" d="M0.333008 3.3335V10.0002V10.5002C0.333008 11.6968 1.31985 12.6668 2.51647 12.6668C3.69468 12.6668 4.66634 11.7117 4.66634 10.5335C4.66634 10.2389 4.90512 10.0002 5.19967 10.0002H10.9997V3.3335C10.9997 1.67664 9.65653 0.333496 7.99967 0.333496H3.33301C1.67615 0.333496 0.333008 1.67664 0.333008 3.3335ZM5.16634 6.44805C5.13524 6.42466 5.1054 6.39882 5.07709 6.37051L4.01989 5.31331C3.82463 5.11805 3.50805 5.11805 3.31279 5.31331C3.11753 5.50858 3.11753 5.82516 3.31279 6.02042L4.36998 7.07761C5.08594 7.79357 6.24674 7.79357 6.9627 7.07761L8.0199 6.02042C8.21516 5.82516 8.21516 5.50858 8.0199 5.31331C7.82463 5.11805 7.50805 5.11805 7.31279 5.31331L6.2556 6.37051C6.22729 6.39882 6.19745 6.42466 6.16634 6.44805V3.66687C6.16634 3.39073 5.94248 3.16687 5.66634 3.16687C5.3902 3.16687 5.16634 3.39073 5.16634 3.66687V6.44805ZM13.5841 11.6601C13.2904 12.8137 12.2447 13.6668 10.9997 13.6668H2.99967C4.24466 13.6668 5.29038 12.8137 5.58406 11.6601C5.67489 11.3033 5.96482 11.0002 6.33301 11.0002H12.9997C13.3679 11.0002 13.6749 11.3033 13.5841 11.6601Z" fill="black"/>
</svg>
