<svg width="15" height="16" viewBox="0 0 15 16" fill="none" xmlns="http://www.w3.org/2000/svg">
<path fill-rule="evenodd" clip-rule="evenodd" d="M14.167 2.66667H10.167V2C10.167 0.866667 9.30033 0 8.16699 0H6.83366C5.70033 0 4.83366 0.866667 4.83366 2V2.66667H0.833659C0.433659 2.66667 0.166992 2.93333 0.166992 3.33333C0.166992 3.73333 0.433659 4 0.833659 4H1.50033C1.50033 4 1.50033 4 1.50033 4.06667L2.10033 14.1333C2.16699 15.2 3.03366 16 4.10033 16H10.9003C11.967 16 12.8337 15.2 12.9003 14.1333L13.5003 4.06667C13.5003 4.06667 13.5003 4.06667 13.5003 4H14.167C14.567 4 14.8337 3.73333 14.8337 3.33333C14.8337 2.93333 14.567 2.66667 14.167 2.66667ZM6.16699 2C6.16699 1.6 6.43366 1.33333 6.83366 1.33333H8.16699C8.56699 1.33333 8.83366 1.6 8.83366 2V2.66667H6.16699V2ZM6.83366 12.6667C6.83366 13.0667 6.56699 13.3333 6.16699 13.3333C5.76699 13.3333 5.50033 13.0667 5.50033 12.6667V6C5.50033 5.6 5.76699 5.33333 6.16699 5.33333C6.56699 5.33333 6.83366 5.6 6.83366 6V12.6667ZM9.50033 12.6667C9.50033 13.0667 9.23366 13.3333 8.83366 13.3333C8.43366 13.3333 8.16699 13.0667 8.16699 12.6667V6C8.16699 5.6 8.43366 5.33333 8.83366 5.33333C9.23366 5.33333 9.50033 5.6 9.50033 6V12.6667Z" fill="#FC3400"/>
</svg>
